<?xml version="1.0" standalone="no"?>
<!DOCTYPE svg PUBLIC "-//W3C//DTD SVG 20010904//EN"
 "http://www.w3.org/TR/2001/REC-SVG-20010904/DTD/svg10.dtd">
<svg version="1.0" xmlns="http://www.w3.org/2000/svg"
 width="128.000000pt" height="128.000000pt" viewBox="0 0 128.000000 128.000000"
 preserveAspectRatio="xMidYMid meet">
<metadata>
Created by potrace 1.11, written by Peter Selinger 2001-2013
</metadata>
<g transform="translate(0.000000,128.000000) scale(0.100000,-0.100000)"
fill="#000000" stroke="none">
<path d="M0 640 l0 -640 640 0 640 0 0 640 0 640 -640 0 -640 0 0 -640z m232
583 c8 -10 19 -30 25 -45 11 -24 19 -27 80 -33 37 -4 92 -14 120 -22 l53 -14
-14 -32 c-7 -18 -19 -56 -25 -85 l-13 -53 -37 8 c-60 13 -104 7 -162 -22 -103
-52 -131 -102 -105 -188 8 -27 10 -47 4 -47 -30 0 -101 58 -123 100 -34 66
-23 183 23 241 17 20 18 27 5 67 -27 91 -13 119 65 132 74 12 88 11 104 -7z
m473 -77 c23 -16 26 -24 22 -53 -4 -23 -1 -40 8 -49 7 -7 16 -33 19 -56 9 -60
67 -301 75 -310 3 -4 19 47 35 112 16 66 32 120 37 120 12 0 13 2 -22 -139
-39 -157 -43 -165 -61 -121 -16 39 -74 272 -84 338 -3 23 -12 49 -19 56 -9 9
-12 26 -8 49 4 30 2 37 -18 47 -13 7 -40 28 -60 47 -20 19 -39 30 -43 25 -18
-30 -72 -205 -116 -378 -27 -108 -52 -200 -55 -202 -9 -10 -15 5 -51 134 -20
71 -38 137 -41 147 -3 9 -1 17 5 17 9 0 72 -199 72 -227 0 -7 3 -13 8 -13 4 0
24 71 46 158 44 180 99 347 123 374 15 17 18 16 58 -20 24 -20 55 -45 70 -56z
m380 59 c29 -9 60 -24 69 -34 15 -16 15 -22 1 -61 -8 -23 -15 -44 -15 -45 0
-6 94 26 109 37 9 7 1 -4 -18 -25 -45 -48 -246 -134 -358 -152 -42 -7 -43 -6
-43 22 0 15 -4 42 -9 60 l-9 31 56 -5 57 -5 23 79 c24 80 44 113 70 113 7 0
38 -7 67 -15z m19 -267 c-8 -29 -28 -98 -44 -153 -16 -55 -45 -158 -65 -230
-19 -72 -38 -138 -41 -148 -5 -17 -3 -17 35 2 36 19 42 28 61 87 11 36 20 75
20 85 0 33 38 22 90 -27 81 -76 91 -158 27 -231 -68 -77 -169 -100 -477 -107
-159 -4 -219 -10 -325 -32 -71 -14 -147 -35 -167 -45 -56 -29 -54 -23 9 27 32
26 61 50 66 53 4 4 -2 45 -12 92 -11 46 -31 135 -45 198 -14 62 -37 149 -51
193 -14 43 -25 93 -24 111 1 60 65 -169 138 -493 9 -41 21 -74 27 -73 5 1 44
16 86 34 l77 31 22 72 c12 39 36 131 54 204 30 123 40 152 48 141 8 -11 52
-176 73 -273 14 -61 27 -112 29 -115 6 -6 186 27 202 37 6 4 30 75 52 157 23
83 53 186 66 230 13 44 31 109 41 145 14 54 27 79 41 80 1 0 -5 -24 -13 -52z
m-344 -788 c12 -49 43 -100 61 -100 12 0 34 52 46 104 4 22 13 41 20 43 8 3 9
-5 3 -29 -5 -18 -12 -45 -15 -60 -3 -15 -16 -40 -29 -55 l-24 -28 -31 30 c-37
35 -76 145 -52 145 5 0 14 -22 21 -50z m-276 13 c-18 -55 -54 -103 -77 -103
-18 0 -74 49 -80 70 -3 11 -1 20 5 20 5 0 12 -9 15 -20 7 -25 49 -53 71 -46
15 5 29 28 46 79 3 9 10 17 15 17 6 0 8 -8 5 -17z"/>
<path d="M160 1215 c-8 -2 -32 -6 -52 -10 -33 -5 -38 -9 -38 -33 0 -15 5 -43
10 -64 l10 -36 53 29 c28 16 62 29 74 29 31 0 35 13 18 54 -15 36 -27 41 -75
31z"/>
<path d="M995 1188 c-24 -65 -45 -134 -45 -146 0 -12 11 -14 59 -9 90 10 106
19 125 73 8 25 13 50 11 55 -6 9 -105 39 -129 39 -9 0 -19 -6 -21 -12z"/>
<path d="M590 608 c-7 -35 -28 -114 -46 -177 -19 -63 -32 -116 -31 -118 2 -1
19 2 38 7 18 6 55 10 81 10 26 0 49 4 52 9 10 16 -65 331 -79 331 -1 0 -8 -28
-15 -62z"/>
</g>
</svg>
